<mxfile host="app.diagrams.net" agent="Mozilla/5.0 (Windows NT 10.0; Win64; x64) AppleWebKit/537.36 (KHTML, like Gecko) Chrome/134.0.0.0 Safari/537.36 Edg/134.0.0.0" version="26.1.1">
  <diagram name="Página-1" id="2ACgEyqTduvn5FmEYcMW">
    <mxGraphModel dx="1246" dy="681" grid="1" gridSize="10" guides="1" tooltips="1" connect="1" arrows="1" fold="1" page="1" pageScale="1" pageWidth="827" pageHeight="1169" math="0" shadow="0">
      <root>
        <mxCell id="0" />
        <mxCell id="1" parent="0" />
        <mxCell id="L6VbJGl1hFEP0TACU5ey-64" value="" style="rounded=1;whiteSpace=wrap;html=1;" vertex="1" parent="1">
          <mxGeometry x="80" y="14.5" width="790" height="695.5" as="geometry" />
        </mxCell>
        <mxCell id="L6VbJGl1hFEP0TACU5ey-62" value="" style="rounded=0;whiteSpace=wrap;html=1;" vertex="1" parent="1">
          <mxGeometry x="130" y="180" width="700" height="140" as="geometry" />
        </mxCell>
        <mxCell id="L6VbJGl1hFEP0TACU5ey-52" value="" style="rounded=0;whiteSpace=wrap;html=1;" vertex="1" parent="1">
          <mxGeometry x="644.5" y="479" width="155" height="60" as="geometry" />
        </mxCell>
        <mxCell id="L6VbJGl1hFEP0TACU5ey-2" value="" style="rounded=0;whiteSpace=wrap;html=1;" vertex="1" parent="1">
          <mxGeometry x="149" y="75.5" width="161" height="60" as="geometry" />
        </mxCell>
        <mxCell id="L6VbJGl1hFEP0TACU5ey-3" value="" style="rounded=0;whiteSpace=wrap;html=1;" vertex="1" parent="1">
          <mxGeometry x="155" y="214.5" width="155" height="78" as="geometry" />
        </mxCell>
        <mxCell id="L6VbJGl1hFEP0TACU5ey-4" value="" style="rounded=0;whiteSpace=wrap;html=1;" vertex="1" parent="1">
          <mxGeometry x="400" y="600" width="159" height="80" as="geometry" />
        </mxCell>
        <mxCell id="L6VbJGl1hFEP0TACU5ey-5" value="" style="endArrow=classic;html=1;rounded=0;strokeColor=default;dashed=1;" edge="1" parent="1">
          <mxGeometry width="50" height="50" relative="1" as="geometry">
            <mxPoint x="219.5" y="134.5" as="sourcePoint" />
            <mxPoint x="220" y="180" as="targetPoint" />
          </mxGeometry>
        </mxCell>
        <mxCell id="L6VbJGl1hFEP0TACU5ey-7" value="&lt;div&gt;&lt;i&gt;&lt;b&gt;Componente de registro&lt;/b&gt;&lt;/i&gt;&lt;/div&gt;&lt;div&gt;&lt;span style=&quot;font-family: Calibri, sans-serif; font-size: 11pt; background-color: transparent; color: light-dark(rgb(0, 0, 0), rgb(255, 255, 255));&quot;&gt;(reaccionar/angular)&lt;/span&gt;&lt;/div&gt;" style="text;strokeColor=none;align=center;fillColor=none;html=1;verticalAlign=middle;whiteSpace=wrap;rounded=0;" vertex="1" parent="1">
          <mxGeometry x="167" y="85.75" width="126" height="39.5" as="geometry" />
        </mxCell>
        <mxCell id="L6VbJGl1hFEP0TACU5ey-8" value="&lt;div&gt;&lt;b&gt;Proxy de autenticación&amp;nbsp;&lt;/b&gt;&lt;/div&gt;&lt;div&gt;(Tokens de Valida)&lt;/div&gt;" style="text;strokeColor=none;align=center;fillColor=none;html=1;verticalAlign=middle;whiteSpace=wrap;rounded=0;" vertex="1" parent="1">
          <mxGeometry x="189.5" y="233.5" width="90" height="40" as="geometry" />
        </mxCell>
        <mxCell id="L6VbJGl1hFEP0TACU5ey-9" value="&#xa;&lt;span style=&quot;color: rgba(0, 0, 0, 0); font-family: monospace; font-size: 0px; font-style: normal; font-variant-ligatures: normal; font-variant-caps: normal; font-weight: 400; letter-spacing: normal; orphans: 2; text-align: start; text-indent: 0px; text-transform: none; widows: 2; word-spacing: 0px; -webkit-text-stroke-width: 0px; white-space: nowrap; background-color: rgb(251, 251, 251); text-decoration-thickness: initial; text-decoration-style: initial; text-decoration-color: initial; display: inline !important; float: none;&quot;&gt;%3CmxGraphModel%3E%3Croot%3E%3CmxCell%20id%3D%220%22%2F%3E%3CmxCell%20id%3D%221%22%20parent%3D%220%22%2F%3E%3CmxCell%20id%3D%222%22%20value%3D%22%26lt%3Bfont%26gt%3B%26lt%3Bspan%26gt%3BSBe ervicio%20de%20Autenticaci%C3%B3n%26lt%3B%2Fspan%26gt%3B%26lt%3Bb%26gt%3B%26amp%3Bnbsp%3B%26lt%3B%2Fb%26gt%3B%26lt%3B%2Ffont%26gt%3B%26lt%3Bdiv%26gt%3B%26lt%3Bfont%26gt%3B%26lt%3Bb%26gt% 3B(Oauth%202.0%20%2F%20OpenID)%26lt%3B%2Fb%26gt%3B%26lt%3B%2Ffont%26gt%3B%26lt%3B%2Fdiv%26gt%3B%22%20style%3D%22text%3BwhiteSpace%3Dwrap%3Bhtml%3D1%3Balign%3Dcenter%3B%22%20vertex%3D%221%22%20parent%3D%222%220parent%3D%2221%22%3E%3CmxGeometría%20x%3D%22434%22%20y%3D%22220%22%20width%3D%22106%22%20height%3D%2240%22%20as%3D%22geometry%22%2F%3E%3C%2FmxCell%3E%3C%2Froot%3E%3C%2FmxGraphModel%3E" style="rounded=0;whiteSpace=wrap;html=1;" vertex="1" parent="1">
          <mxGeometry x="155" y="370" width="155" height="60" as="geometry" />
        </mxCell>
        <mxCell id="L6VbJGl1hFEP0TACU5ey-10" value="&#xa;&lt;span style=&quot;color: rgba(0, 0, 0, 0); font-family: monospace; font-size: 0px; font-style: normal; font-variant-ligatures: normal; font-variant-caps: normal; font-weight: 400; letter-spacing: normal; orphans: 2; text-align: start; text-indent: 0px; text-transform: none; widows: 2; word-spacing: 0px; -webkit-text-stroke-width: 0px; white-space: nowrap; background-color: rgb(251, 251, 251); text-decoration-thickness: initial; text-decoration-style: initial; text-decoration-color: initial; display: inline !important; float: none;&quot;&gt;%3CmxGraphModel%3E%3Croot%3E%3CmxCell%20id%3D%220%22%2F%3E%3CmxCell%20id%3D%221%22%20parent%3D%220%22%2F%3E%3CmxCell%20id%3D%222%22%20value%3D%22%26%2310%3B%26lt%3Bspan%20style%3D%26quot%3Bcolor%3CmxCell%20CmxCell%3D%3D%3D%3D%3D%3D%3D%220%3D%3D%222%22%22%22%220CmxCell%3D%222%22%220CmxCell%3D%3D%222%220CmxCell%3D%3D%222%220CmxCell%3D%222%220CmxCell%3D%222%220CmxCell%3D%222%220CmxCell%3D%222%220CmxCell%3D%222%220CmxCell%222%23D%220CmxCell%222%2310%3B%26lt%3Bspan%20style%3D%26quot%3Bcolor%3D%3Bcolor%3Bcolor%3D%3CmxCell%20id%3D%222%22%22%222%222%222%222%A%20rgba(0%2C%200%2C%200%2C%200)%3B%20familia-de-fuentes%3A%20monoespacio%3B%20tamaño-fuente%3A%200px%3B%20estilo-fuente%3A%20normal%3B%20ligaduras-variantes%3A%20normal%3B%20mayúsculas-variantes%3A%20normal%3B%20peso-fuente%3A%20400%3B%20espaciado-letra%3A% 20normal%3B%20huérfanos%3A%202%3B%20text-align%3A%20start%3B%20text-indent%3A%200px%3B%20text-transform%3A%20none%3B%20widows%3A%202%3B%20word-spacing%3A%200px%3B%20-webkit-text-stroke-width%3A%200px%3B%20espacio-en-blanco%3A%20nowrap%3B%20color-de-fondo%3A%20rgb(251%2C%20251%2C%20251)%3B%20texto-decoración-grosor%3A%20inicial%3B%20texto-estilo-de-decoración%3A%20inicial%3B%20color-de-decoración-de-texto%3A%20inicial%3B%20pantalla%3A%20inline%20! importante%3B%20float%3A%20none%3B%26quot%3B%26gt%3B%253CmxGraphModel%253E%253Croot%253E%253CmxCell%2520id%253D%25220%2522%252F%253E%253CmxCell%2520id%253D%25221%2522%2520parent%2520parent%2523D%25220%2522%252F%253E%253CmxCell%2520id%253D%25222%2522%2520value%253D%2522%2522%2520style%253D%2522endArrow%253Dclassic%253Bhtml%253D1%253Brounded%253D0%253BentryX%253D0.3D0. 5%253BentryY%253D0%253BentryDx%253D0%253BentryDy%253D0%253BstrokeColor%253Ddefault%253Bdashed%253D1%253B%2522%2520edge%253D%25221%2522%2520parent%253D%25221%2522%253E%253CmxGeometr%C3%ADa%2522% 0ancho%253D%252250%2522%2520altura%253D%252250%2522%2520relativo%253D%25221%2522%25%2020as%253D%2522geometry%2522%253E%253CmxPoint%2520x%253D%2522214.5%2522%2520y%253D%2522292.5%2522%2520as%253D%2522sourcePoint%2522%252F%253E%253CmxPoint%2520x%253D%2522214.5% 2522%2520y%253D%2522372.5%2522%2520as%253D%2522targetPoint%2522%252F%253E%253C%252FmxGeometry%253E%253C%252FmxCell%253E%253C%252Froot%253E%253C%252FmxGraphModel%253E%22%20style%3D%22endArrow%3Dclassic%3Bhtml%3D1%3Brounded%3D0%3BentryX%3D0.3BentryX%3D0.5%3BentryY%3D0%3BentryDx%3D0%3BentryDy%3D0%3BstrokeColor%3Ddefault%3Bdashed%3D1%3B%22%20edge%3D%221%22%20parent%3D%221%22%3E%3CmxGeometría%20width%3D%2250%22%20height%3D%2250%22%20relative%3D%221%22%20as%3D% 22geometría%22%3E%3CmxPoint%20x%3D%22219.5%22%20y%3D%22430%22%20as%3D%22sourcePoint%22%2F%3E%3CmxPoint%20x%3D%22219.5%22%20y%3D%22510%22%20as%3D%22targetPoint%22%2F%3E%3C%2FmxGeometry%3E%3C%2FmxCell%3E%3C%2Froot%3E%3C%2FmxGraphModel%3E" style="endArrow=classic;html=1;rounded=0;strokeColor=default;dashed=1;entryX=0.404;entryY=0.033;entryDx=0;entryDy=0;entryPerimeter=0;" edge="1" parent="1" target="L6VbJGl1hFEP0TACU5ey-15">
          <mxGeometry width="50" height="50" relative="1" as="geometry">
            <mxPoint x="219.5" y="430" as="sourcePoint" />
            <mxPoint x="220" y="510" as="targetPoint" />
          </mxGeometry>
        </mxCell>
        <mxCell id="L6VbJGl1hFEP0TACU5ey-12" value="" style="rounded=0;whiteSpace=wrap;html=1;" vertex="1" parent="1">
          <mxGeometry x="157" y="620" width="155" height="50" as="geometry" />
        </mxCell>
        <mxCell id="L6VbJGl1hFEP0TACU5ey-13" value="&lt;span style=&quot;color: rgba(0, 0, 0, 0); font-family: monospace; font-size: 0px; font-style: normal; font-variant-ligatures: normal; font-variant-caps: normal; font-weight: 400; letter-spacing: normal; orphans: 2; text-align: start; text-indent: 0px; text-transform: none; widows: 2; word-spacing: 0px; -webkit-text-stroke-width: 0px; white-space: nowrap; background-color: rgb(251, 251, 251); text-decoration-thickness: initial; text-decoration-style: initial; text-decoration-color: initial; display: inline !important; float: none;&quot;&gt;%3CmxGraphModel%3E%3Croot%3E%3CmxCell%20id%3D%220%22%2F%3E%3CmxCell%20id%3D%221%22%20parent%3D%220%22%2F%3E%3CmxCell%20id%3D%222%22%20value%3D%22%26lt%3Bdiv%26gt%3B%26lt%3Bi%26gt %3B%26lt%3Bb%26gt%3BMicroservicio%26lt%3B%2Fb%26gt%3B%26lt%3B%2Fi%26gt%3B%26lt%3B%2Fdiv%26gt%3B%26lt%3Bdiv%26gt%3B%26lt%3Bi%20style%3D%26quot%3Bbackground-color%3A%20transparent%3B%20color%3A%20light-dark(rgb(0% 2C%200%2C%200)%2C%20rgb(255%2C%20255%2C%20255))%3B%26quot%3B%26gt%3B%20N%C3%BAcleo%20bancario%20(transacciones%2C%20saldos)%26lt%3B%2Fi%26gt%3B%26lt%3B%2Fdiv%26gt%3B%26lt%3Bdiv%26gt%3B%26amp %3Bnbsp%3B%26lt%3B%2Fdiv%26gt%3B%22%20style%3D%22text%3BstrokeColor%3Dnone%3Balign%3Dcenter%3BfillColor%3Dnone%3Bhtml%3D1%3BverticalAlign%3Dmiddle%3BwhiteSpace%3Dwrap%3Brounded%3D0%3B%22%20vertex%3D%221%22%20parent%3D%221%22%3E% 3CmxGeometría%20x%3D%22155%22%20y%3D%22380%22%20ancho%3D%22130%22%20altura%3D%2250%22%20as%3D%22geometría%22%2F%3E%3C%2FmxCell%3E%3C%2Froot%3E%3C%2FmxGraphModel%3E&lt;/span&gt;" style="text;whiteSpace=wrap;html=1;" vertex="1" parent="1">
          <mxGeometry x="490" y="390" width="30" height="40" as="geometry" />
        </mxCell>
        <mxCell id="L6VbJGl1hFEP0TACU5ey-14" value="&#xa;&lt;span style=&quot;color: rgba(0, 0, 0, 0); font-family: monospace; font-size: 0px; font-style: normal; font-variant-ligatures: normal; font-variant-caps: normal; font-weight: 400; letter-spacing: normal; orphans: 2; text-align: start; text-indent: 0px; text-transform: none; widows: 2; word-spacing: 0px; -webkit-text-stroke-width: 0px; white-space: nowrap; background-color: rgb(251, 251, 251); text-decoration-thickness: initial; text-decoration-style: initial; text-decoration-color: initial; display: inline !important; float: none;&quot;&gt;%3CmxGraphModel%3E%3Croot%3E%3CmxCell%20id%3D%220%22%2F%3E%3CmxCell%20id%3D%221%22%20parent%3D%220%22%2F%3E%3CmxCell%20id%3D%222%22%20value%3D%22%22%20style%3D%22endArrow%3Dclassic%3Bhtml%3D1%3Brounded%3D0%3BentryX%3D0.3D0.5%3BentryY%3D0%3BentryDx%3D0%3BentryDy%3D0%3BstrokeColor%3Ddefault%3Bdashed%3D1%3B%22%20edge%3D%221%22%20parent%3D%221%22%3E%3CmxGeometría%20width%3D%2250%22%20height%3D%2250%22%20relative%3D%221%22% 20as%3D%22geometry%22%3E%3CmxPoint%20x%3D%22214.5%22%20y%3D%22292.5%22%20as%3D%22sourcePoint%22%2F%3E%3CmxPoint%20x%3D%22214.5%22%20y%3D%22372.5%22%20as%3D%22targetPoint%22%2F%3E%3C%2FmxGeometry%3E%3C%2FmxCell%3E%3C%2Froot%3E%3C%2FmxGraphModel%3E" style="endArrow=classic;html=1;rounded=0;entryX=0.5;entryY=0;entryDx=0;entryDy=0;strokeColor=default;dashed=1;" edge="1" parent="1">
          <mxGeometry width="50" height="50" relative="1" as="geometry">
            <mxPoint x="219.5" y="292.5" as="sourcePoint" />
            <mxPoint x="219.5" y="372.5" as="targetPoint" />
          </mxGeometry>
        </mxCell>
        <mxCell id="L6VbJGl1hFEP0TACU5ey-15" value="&lt;font&gt;&lt;b&gt;&amp;nbsp; &amp;nbsp; &amp;nbsp; &amp;nbsp; &amp;nbsp;&lt;i&gt;Base de Datos de &lt;b style=&quot;font-style: normal;&quot;&gt;usuario&lt;/b&gt;&lt;/i&gt;&lt;/b&gt;&lt;/font&gt;&lt;div&gt;&lt;i&gt;(POSTGRESQL)&lt;/i&gt;&lt;/div&gt;" style="text;whiteSpace=wrap;html=1;align=center;" vertex="1" parent="1">
          <mxGeometry x="164.5" y="620" width="140" height="40" as="geometry" />
        </mxCell>
        <mxCell id="L6VbJGl1hFEP0TACU5ey-16" value="" style="rounded=0;whiteSpace=wrap;html=1;" vertex="1" parent="1">
          <mxGeometry x="401" y="75.5" width="161" height="60" as="geometry" />
        </mxCell>
        <mxCell id="L6VbJGl1hFEP0TACU5ey-17" value="&lt;font&gt;&lt;b&gt;Componente del panel de control&lt;/b&gt;&lt;span&gt;&amp;nbsp;&lt;/span&gt;&lt;/font&gt;&lt;div&gt;&lt;font&gt;&lt;span&gt;&amp;nbsp;(Consulta saldos)&lt;/span&gt;&lt;/font&gt;&lt;div&gt;&lt;br&gt;&lt;/div&gt;&lt;/div&gt;" style="text;whiteSpace=wrap;html=1;align=center;" vertex="1" parent="1">
          <mxGeometry x="430" y="75.5" width="120" height="40" as="geometry" />
        </mxCell>
        <mxCell id="L6VbJGl1hFEP0TACU5ey-18" value="" style="endArrow=classic;html=1;rounded=0;strokeColor=default;dashed=1;" edge="1" parent="1">
          <mxGeometry width="50" height="50" relative="1" as="geometry">
            <mxPoint x="480.83000000000004" y="134.5" as="sourcePoint" />
            <mxPoint x="480" y="180" as="targetPoint" />
          </mxGeometry>
        </mxCell>
        <mxCell id="L6VbJGl1hFEP0TACU5ey-19" value="" style="rounded=0;whiteSpace=wrap;html=1;" vertex="1" parent="1">
          <mxGeometry x="400" y="214.5" width="160" height="78" as="geometry" />
        </mxCell>
        <mxCell id="L6VbJGl1hFEP0TACU5ey-20" value="" style="rounded=0;whiteSpace=wrap;html=1;" vertex="1" parent="1">
          <mxGeometry x="400" y="370" width="155" height="60" as="geometry" />
        </mxCell>
        <mxCell id="L6VbJGl1hFEP0TACU5ey-21" value="&#xa;&lt;span style=&quot;color: rgba(0, 0, 0, 0); font-family: monospace; font-size: 0px; font-style: normal; font-variant-ligatures: normal; font-variant-caps: normal; font-weight: 400; letter-spacing: normal; orphans: 2; text-align: start; text-indent: 0px; text-transform: none; widows: 2; word-spacing: 0px; -webkit-text-stroke-width: 0px; white-space: nowrap; background-color: rgb(251, 251, 251); text-decoration-thickness: initial; text-decoration-style: initial; text-decoration-color: initial; display: inline !important; float: none;&quot;&gt;%3CmxGraphModel%3E%3Croot%3E%3CmxCell%20id%3D%220%22%2F%3E%3CmxCell%20id%3D%221%22%20parent%3D%220%22%2F%3E%3CmxCell%20id%3D%222%22%20value%3D%22%22%20style%3D%22endArrow%3Dclassic%3Bhtml%3D1%3Brounded%3D0%3BentryX%3D0.3D0.5%3BentryY%3D0%3BentryDx%3D0%3BentryDy%3D0%3BstrokeColor%3Ddefault%3Bdashed%3D1%3B%22%20edge%3D%221%22%20parent%3D%221%22%3E%3CmxGeometría%20width%3D%2250%22%20height%3D%2250%22%20relative%3D%221%22% 20as%3D%22geometry%22%3E%3CmxPoint%20x%3D%22214.5%22%20y%3D%22292.5%22%20as%3D%22sourcePoint%22%2F%3E%3CmxPoint%20x%3D%22214.5%22%20y%3D%22372.5%22%20as%3D%22targetPoint%22%2F%3E%3C%2FmxGeometry%3E%3C%2FmxCell%3E%3C%2Froot%3E%3C%2FmxGraphModel%3E" style="endArrow=classic;html=1;rounded=0;entryX=0.5;entryY=0;entryDx=0;entryDy=0;strokeColor=default;dashed=1;" edge="1" parent="1">
          <mxGeometry width="50" height="50" relative="1" as="geometry">
            <mxPoint x="480" y="300" as="sourcePoint" />
            <mxPoint x="479.83000000000004" y="370" as="targetPoint" />
          </mxGeometry>
        </mxCell>
        <mxCell id="L6VbJGl1hFEP0TACU5ey-22" value="&#xa;&lt;span style=&quot;color: rgba(0, 0, 0, 0); font-family: monospace; font-size: 0px; font-style: normal; font-variant-ligatures: normal; font-variant-caps: normal; font-weight: 400; letter-spacing: normal; orphans: 2; text-align: start; text-indent: 0px; text-transform: none; widows: 2; word-spacing: 0px; -webkit-text-stroke-width: 0px; white-space: nowrap; background-color: rgb(251, 251, 251); text-decoration-thickness: initial; text-decoration-style: initial; text-decoration-color: initial; display: inline !important; float: none;&quot;&gt;%3CmxGraphModel%3E%3Croot%3E%3CmxCell%20id%3D%220%22%2F%3E%3CmxCell%20id%3D%221%22%20parent%3D%220%22%2F%3E%3CmxCell%20id%3D%222%22%20value%3D%22%22%20style%3D%22endArrow%3Dclassic%3Bhtml%3D1%3Brounded%3D0%3BentryX%3D0.3D0.5%3BentryY%3D0%3BentryDx%3D0%3BentryDy%3D0%3BstrokeColor%3Ddefault%3Bdashed%3D1%3B%22%20edge%3D%221%22%20parent%3D%221%22%3E%3CmxGeometría%20width%3D%2250%22%20height%3D%2250%22%20relative%3D%221%22% 20as%3D%22geometry%22%3E%3CmxPoint%20x%3D%22214.5%22%20y%3D%22292.5%22%20as%3D%22sourcePoint%22%2F%3E%3CmxPoint%20x%3D%22214.5%22%20y%3D%22372.5%22%20as%3D%22targetPoint%22%2F%3E%3C%2FmxGeometry%3E%3C%2FmxCell%3E%3C%2Froot%3E%3C%2FmxGraphModel%3E" style="endArrow=classic;html=1;rounded=0;entryX=0.5;entryY=0;entryDx=0;entryDy=0;strokeColor=default;dashed=1;" edge="1" parent="1">
          <mxGeometry width="50" height="50" relative="1" as="geometry">
            <mxPoint x="481" y="430" as="sourcePoint" />
            <mxPoint x="480.83000000000004" y="480" as="targetPoint" />
          </mxGeometry>
        </mxCell>
        <mxCell id="L6VbJGl1hFEP0TACU5ey-24" value="&lt;font&gt;&lt;b&gt;&lt;span&gt;Capa de enrutamiento&lt;/span&gt;&amp;nbsp;&lt;/b&gt;&lt;/font&gt;&lt;div&gt;&lt;font&gt;&lt;span&gt;&lt;i style=&quot;&quot;&gt;(Versiones de API&lt;/i&gt;&lt;b&gt;)&lt;/b&gt;&lt;/span&gt;&lt;/font&gt;&lt;/div&gt;" style="text;whiteSpace=wrap;html=1;align=center;" vertex="1" parent="1">
          <mxGeometry x="434" y="220" width="96" height="40" as="geometry" />
        </mxCell>
        <mxCell id="L6VbJGl1hFEP0TACU5ey-25" value="&lt;div&gt;&lt;font&gt;&lt;i&gt;&lt;b&gt;Núcleo bancario&amp;nbsp;&lt;/b&gt;&lt;/i&gt;&lt;/font&gt;&lt;/div&gt;&lt;div&gt;&lt;font&gt;&lt;i&gt;&lt;span&gt;(transacciones)&lt;/span&gt;&lt;/i&gt;&lt;/font&gt;&lt;span style=&quot;background-color: transparent; color: light-dark(rgb(0, 0, 0), rgb(255, 255, 255));&quot;&gt;&amp;nbsp;&lt;/span&gt;&lt;/div&gt;" style="text;strokeColor=none;align=center;fillColor=none;html=1;verticalAlign=middle;whiteSpace=wrap;rounded=0;" vertex="1" parent="1">
          <mxGeometry x="415" y="380" width="135" height="50" as="geometry" />
        </mxCell>
        <mxCell id="L6VbJGl1hFEP0TACU5ey-28" value="&lt;div&gt;&lt;span&gt;&lt;span&gt;&amp;nbsp;APLICACIÓN WEB SPA&lt;/span&gt;&lt;/span&gt;&lt;/div&gt;" style="text;strokeColor=none;align=center;fillColor=none;html=1;verticalAlign=middle;whiteSpace=wrap;rounded=0;fontStyle=1;fontSize=15;fontColor=light-dark(#0000CC,#EDEDED);horizontal=1;shadow=0;glass=0;" vertex="1" parent="1">
          <mxGeometry x="369.5" y="20" width="220" height="39.5" as="geometry" />
        </mxCell>
        <mxCell id="L6VbJGl1hFEP0TACU5ey-29" value="&lt;font&gt;&lt;b&gt;transacciones DB (Mysql)&lt;/b&gt;&lt;/font&gt;" style="text;whiteSpace=wrap;html=1;align=center;" vertex="1" parent="1">
          <mxGeometry x="427.5" y="620" width="105" height="40" as="geometry" />
        </mxCell>
        <mxCell id="L6VbJGl1hFEP0TACU5ey-34" value="&lt;font&gt;&lt;span&gt;&lt;b&gt;Servicio de Autenticación&lt;/b&gt; &lt;/span&gt;&lt;/font&gt;&lt;span style=&quot;background-color: transparent; color: light-dark(rgb(0, 0, 0), rgb(255, 255, 255));&quot;&gt;(OAuth 2.0 / JWT)&lt;/span&gt;" style="text;whiteSpace=wrap;html=1;align=center;" vertex="1" parent="1">
          <mxGeometry x="181.5" y="370" width="106" height="40" as="geometry" />
        </mxCell>
        <mxCell id="L6VbJGl1hFEP0TACU5ey-36" value="" style="rounded=0;whiteSpace=wrap;html=1;" vertex="1" parent="1">
          <mxGeometry x="404.5" y="480" width="155" height="60" as="geometry" />
        </mxCell>
        <mxCell id="L6VbJGl1hFEP0TACU5ey-37" value="&#xa;&lt;span style=&quot;color: rgba(0, 0, 0, 0); font-family: monospace; font-size: 0px; font-style: normal; font-variant-ligatures: normal; font-variant-caps: normal; font-weight: 400; letter-spacing: normal; orphans: 2; text-align: start; text-indent: 0px; text-transform: none; widows: 2; word-spacing: 0px; -webkit-text-stroke-width: 0px; white-space: nowrap; background-color: rgb(251, 251, 251); text-decoration-thickness: initial; text-decoration-style: initial; text-decoration-color: initial; display: inline !important; float: none;&quot;&gt;%3CmxGraphModel%3E%3Croot%3E%3CmxCell%20id%3D%220%22%2F%3E%3CmxCell%20id%3D%221%22%20parent%3D%220%22%2F%3E%3CmxCell%20id%3D%222%22%20value%3D%22%22%20style%3D%22endArrow%3Dclassic%3Bhtml%3D1%3Brounded%3D0%3BentryX%3D0.3D0.5%3BentryY%3D0%3BentryDx%3D0%3BentryDy%3D0%3BstrokeColor%3Ddefault%3Bdashed%3D1%3B%22%20edge%3D%221%22%20parent%3D%221%22%3E%3CmxGeometría%20width%3D%2250%22%20height%3D%2250%22%20relative%3D%221%22% 20as%3D%22geometry%22%3E%3CmxPoint%20x%3D%22214.5%22%20y%3D%22292.5%22%20as%3D%22sourcePoint%22%2F%3E%3CmxPoint%20x%3D%22214.5%22%20y%3D%22372.5%22%20as%3D%22targetPoint%22%2F%3E%3C%2FmxGeometry%3E%3C%2FmxCell%3E%3C%2Froot%3E%3C%2FmxGraphModel%3E" style="endArrow=classic;html=1;rounded=0;entryX=0.515;entryY=0;entryDx=0;entryDy=0;strokeColor=default;dashed=1;entryPerimeter=0;" edge="1" parent="1" target="L6VbJGl1hFEP0TACU5ey-4">
          <mxGeometry width="50" height="50" relative="1" as="geometry">
            <mxPoint x="482" y="543" as="sourcePoint" />
            <mxPoint x="481.83000000000004" y="593" as="targetPoint" />
          </mxGeometry>
        </mxCell>
        <mxCell id="L6VbJGl1hFEP0TACU5ey-39" value="&lt;div&gt;&lt;font&gt;&lt;i&gt;&lt;b&gt;&amp;nbsp;registradorAuditoría &lt;/b&gt;&lt;/i&gt;&lt;/font&gt;&lt;/div&gt;&lt;div&gt;&lt;font&gt;&lt;i&gt;&lt;span&gt;(Patrón del observador)&lt;/span&gt;&lt;/i&gt;&lt;/font&gt;&lt;i style=&quot;background-color: transparent; color: light-dark(rgb(0, 0, 0), rgb(255, 255, 255));&quot;&gt;&lt;/i&gt;&lt;/div&gt;" style="text;strokeColor=none;align=center;fillColor=none;html=1;verticalAlign=middle;whiteSpace=wrap;rounded=0;" vertex="1" parent="1">
          <mxGeometry x="410" y="480" width="135" height="50" as="geometry" />
        </mxCell>
        <mxCell id="L6VbJGl1hFEP0TACU5ey-40" value="" style="rounded=0;whiteSpace=wrap;html=1;" vertex="1" parent="1">
          <mxGeometry x="640" y="599" width="159" height="80" as="geometry" />
        </mxCell>
        <mxCell id="L6VbJGl1hFEP0TACU5ey-41" value="&lt;span style=&quot;color: rgba(0, 0, 0, 0); font-family: monospace; font-size: 0px; font-style: normal; font-variant-ligatures: normal; font-variant-caps: normal; font-weight: 400; letter-spacing: normal; orphans: 2; text-align: start; text-indent: 0px; text-transform: none; widows: 2; word-spacing: 0px; -webkit-text-stroke-width: 0px; white-space: nowrap; background-color: rgb(251, 251, 251); text-decoration-thickness: initial; text-decoration-style: initial; text-decoration-color: initial; display: inline !important; float: none;&quot;&gt;%3CmxGraphModel%3E%3Croot%3E%3CmxCell%20id%3D%220%22%2F%3E%3CmxCell%20id%3D%221%22%20parent%3D%220%22%2F%3E%3CmxCell%20id%3D%222%22%20value%3D%22%26lt%3Bdiv%26gt%3B%26lt%3Bi%26gt %3B%26lt%3Bb%26gt%3BMicroservicio%26lt%3B%2Fb%26gt%3B%26lt%3B%2Fi%26gt%3B%26lt%3B%2Fdiv%26gt%3B%26lt%3Bdiv%26gt%3B%26lt%3Bi%20style%3D%26quot%3Bbackground-color%3A%20transparent%3B%20color%3A%20light-dark(rgb(0% 2C%200%2C%200)%2C%20rgb(255%2C%20255%2C%20255))%3B%26quot%3B%26gt%3B%20N%C3%BAcleo%20bancario%20(transacciones%2C%20saldos)%26lt%3B%2Fi%26gt%3B%26lt%3B%2Fdiv%26gt%3B%26lt%3Bdiv%26gt%3B%26amp %3Bnbsp%3B%26lt%3B%2Fdiv%26gt%3B%22%20style%3D%22text%3BstrokeColor%3Dnone%3Balign%3Dcenter%3BfillColor%3Dnone%3Bhtml%3D1%3BverticalAlign%3Dmiddle%3BwhiteSpace%3Dwrap%3Brounded%3D0%3B%22%20vertex%3D%221%22%20parent%3D%221%22%3E% 3CmxGeometría%20x%3D%22155%22%20y%3D%22380%22%20ancho%3D%22130%22%20altura%3D%2250%22%20as%3D%22geometría%22%2F%3E%3C%2FmxCell%3E%3C%2Froot%3E%3C%2FmxGraphModel%3E&lt;/span&gt;" style="text;whiteSpace=wrap;html=1;" vertex="1" parent="1">
          <mxGeometry x="730" y="389" width="30" height="40" as="geometry" />
        </mxCell>
        <mxCell id="L6VbJGl1hFEP0TACU5ey-42" value="" style="rounded=0;whiteSpace=wrap;html=1;" vertex="1" parent="1">
          <mxGeometry x="641" y="74.5" width="161" height="60" as="geometry" />
        </mxCell>
        <mxCell id="L6VbJGl1hFEP0TACU5ey-43" value="&lt;font&gt;&lt;b&gt;Componente de transferencia&lt;/b&gt;&lt;span&gt;&amp;nbsp;&lt;/span&gt;&lt;/font&gt;&lt;div&gt;&lt;font&gt;&lt;span&gt;(Envía transacciones)&lt;/span&gt;&lt;/font&gt;&lt;div&gt;&lt;br&gt;&lt;/div&gt;&lt;/div&gt;" style="text;whiteSpace=wrap;html=1;align=center;" vertex="1" parent="1">
          <mxGeometry x="670" y="74.5" width="120" height="40" as="geometry" />
        </mxCell>
        <mxCell id="L6VbJGl1hFEP0TACU5ey-44" value="" style="endArrow=classic;html=1;rounded=0;strokeColor=default;dashed=1;" edge="1" parent="1">
          <mxGeometry width="50" height="50" relative="1" as="geometry">
            <mxPoint x="720.83" y="133.5" as="sourcePoint" />
            <mxPoint x="720" y="180" as="targetPoint" />
          </mxGeometry>
        </mxCell>
        <mxCell id="L6VbJGl1hFEP0TACU5ey-45" value="" style="rounded=0;whiteSpace=wrap;html=1;" vertex="1" parent="1">
          <mxGeometry x="640" y="213.5" width="160" height="78" as="geometry" />
        </mxCell>
        <mxCell id="L6VbJGl1hFEP0TACU5ey-46" value="" style="rounded=0;whiteSpace=wrap;html=1;" vertex="1" parent="1">
          <mxGeometry x="640" y="369" width="155" height="60" as="geometry" />
        </mxCell>
        <mxCell id="L6VbJGl1hFEP0TACU5ey-47" value="&#xa;&lt;span style=&quot;color: rgba(0, 0, 0, 0); font-family: monospace; font-size: 0px; font-style: normal; font-variant-ligatures: normal; font-variant-caps: normal; font-weight: 400; letter-spacing: normal; orphans: 2; text-align: start; text-indent: 0px; text-transform: none; widows: 2; word-spacing: 0px; -webkit-text-stroke-width: 0px; white-space: nowrap; background-color: rgb(251, 251, 251); text-decoration-thickness: initial; text-decoration-style: initial; text-decoration-color: initial; display: inline !important; float: none;&quot;&gt;%3CmxGraphModel%3E%3Croot%3E%3CmxCell%20id%3D%220%22%2F%3E%3CmxCell%20id%3D%221%22%20parent%3D%220%22%2F%3E%3CmxCell%20id%3D%222%22%20value%3D%22%22%20style%3D%22endArrow%3Dclassic%3Bhtml%3D1%3Brounded%3D0%3BentryX%3D0.3D0.5%3BentryY%3D0%3BentryDx%3D0%3BentryDy%3D0%3BstrokeColor%3Ddefault%3Bdashed%3D1%3B%22%20edge%3D%221%22%20parent%3D%221%22%3E%3CmxGeometría%20width%3D%2250%22%20height%3D%2250%22%20relative%3D%221%22% 20as%3D%22geometry%22%3E%3CmxPoint%20x%3D%22214.5%22%20y%3D%22292.5%22%20as%3D%22sourcePoint%22%2F%3E%3CmxPoint%20x%3D%22214.5%22%20y%3D%22372.5%22%20as%3D%22targetPoint%22%2F%3E%3C%2FmxGeometry%3E%3C%2FmxCell%3E%3C%2Froot%3E%3C%2FmxGraphModel%3E" style="endArrow=classic;html=1;rounded=0;entryX=0.5;entryY=0;entryDx=0;entryDy=0;strokeColor=default;dashed=1;" edge="1" parent="1">
          <mxGeometry width="50" height="50" relative="1" as="geometry">
            <mxPoint x="720" y="299" as="sourcePoint" />
            <mxPoint x="719.83" y="369" as="targetPoint" />
          </mxGeometry>
        </mxCell>
        <mxCell id="L6VbJGl1hFEP0TACU5ey-48" value="&#xa;&lt;span style=&quot;color: rgba(0, 0, 0, 0); font-family: monospace; font-size: 0px; font-style: normal; font-variant-ligatures: normal; font-variant-caps: normal; font-weight: 400; letter-spacing: normal; orphans: 2; text-align: start; text-indent: 0px; text-transform: none; widows: 2; word-spacing: 0px; -webkit-text-stroke-width: 0px; white-space: nowrap; background-color: rgb(251, 251, 251); text-decoration-thickness: initial; text-decoration-style: initial; text-decoration-color: initial; display: inline !important; float: none;&quot;&gt;%3CmxGraphModel%3E%3Croot%3E%3CmxCell%20id%3D%220%22%2F%3E%3CmxCell%20id%3D%221%22%20parent%3D%220%22%2F%3E%3CmxCell%20id%3D%222%22%20value%3D%22%22%20style%3D%22endArrow%3Dclassic%3Bhtml%3D1%3Brounded%3D0%3BentryX%3D0.3D0.5%3BentryY%3D0%3BentryDx%3D0%3BentryDy%3D0%3BstrokeColor%3Ddefault%3Bdashed%3D1%3B%22%20edge%3D%221%22%20parent%3D%221%22%3E%3CmxGeometría%20width%3D%2250%22%20height%3D%2250%22%20relative%3D%221%22% 20as%3D%22geometry%22%3E%3CmxPoint%20x%3D%22214.5%22%20y%3D%22292.5%22%20as%3D%22sourcePoint%22%2F%3E%3CmxPoint%20x%3D%22214.5%22%20y%3D%22372.5%22%20as%3D%22targetPoint%22%2F%3E%3C%2FmxGeometry%3E%3C%2FmxCell%3E%3C%2Froot%3E%3C%2FmxGraphModel%3E" style="endArrow=classic;html=1;rounded=0;entryX=0.5;entryY=0;entryDx=0;entryDy=0;strokeColor=default;dashed=1;" edge="1" parent="1">
          <mxGeometry width="50" height="50" relative="1" as="geometry">
            <mxPoint x="721" y="429" as="sourcePoint" />
            <mxPoint x="720.83" y="479" as="targetPoint" />
          </mxGeometry>
        </mxCell>
        <mxCell id="L6VbJGl1hFEP0TACU5ey-49" value="&lt;font&gt;&lt;b&gt;Limitador de velocidad&lt;/b&gt;&lt;/font&gt;&lt;div&gt;&lt;font&gt;&lt;span&gt;(Previene DDoS)&lt;/span&gt;&lt;/font&gt;&lt;/div&gt;" style="text;whiteSpace=wrap;html=1;align=center;" vertex="1" parent="1">
          <mxGeometry x="674" y="219" width="96" height="40" as="geometry" />
        </mxCell>
        <mxCell id="L6VbJGl1hFEP0TACU5ey-50" value="&lt;div&gt;&lt;font&gt;&lt;i&gt;&lt;b&gt;Información Complementaria&lt;/b&gt;&lt;/i&gt;&lt;/font&gt;&lt;/div&gt;&lt;div&gt;&lt;font&gt;&lt;i&gt;&lt;span&gt;(Perfil/contactos)&lt;/span&gt;&lt;/i&gt;&lt;/font&gt;&lt;span style=&quot;background-color: transparent; color: light-dark(rgb(0, 0, 0), rgb(255, 255, 255));&quot;&gt;&amp;nbsp;&lt;/span&gt;&lt;/div&gt;" style="text;strokeColor=none;align=center;fillColor=none;html=1;verticalAlign=middle;whiteSpace=wrap;rounded=0;" vertex="1" parent="1">
          <mxGeometry x="655" y="379" width="125" height="50" as="geometry" />
        </mxCell>
        <mxCell id="L6VbJGl1hFEP0TACU5ey-51" value="&lt;font&gt;&lt;b&gt;Servicio externo de notificaciones&amp;nbsp;&lt;/b&gt;&lt;/font&gt;&lt;div&gt;&lt;i&gt;(AWS SNS/Twilio)&lt;/i&gt;&lt;/div&gt;" style="text;whiteSpace=wrap;html=1;align=center;" vertex="1" parent="1">
          <mxGeometry x="669.5" y="480" width="105" height="40" as="geometry" />
        </mxCell>
        <mxCell id="L6VbJGl1hFEP0TACU5ey-53" value="&#xa;&lt;span style=&quot;color: rgba(0, 0, 0, 0); font-family: monospace; font-size: 0px; font-style: normal; font-variant-ligatures: normal; font-variant-caps: normal; font-weight: 400; letter-spacing: normal; orphans: 2; text-align: start; text-indent: 0px; text-transform: none; widows: 2; word-spacing: 0px; -webkit-text-stroke-width: 0px; white-space: nowrap; background-color: rgb(251, 251, 251); text-decoration-thickness: initial; text-decoration-style: initial; text-decoration-color: initial; display: inline !important; float: none;&quot;&gt;%3CmxGraphModel%3E%3Croot%3E%3CmxCell%20id%3D%220%22%2F%3E%3CmxCell%20id%3D%221%22%20parent%3D%220%22%2F%3E%3CmxCell%20id%3D%222%22%20value%3D%22%22%20style%3D%22endArrow%3Dclassic%3Bhtml%3D1%3Brounded%3D0%3BentryX%3D0.3D0.5%3BentryY%3D0%3BentryDx%3D0%3BentryDy%3D0%3BstrokeColor%3Ddefault%3Bdashed%3D1%3B%22%20edge%3D%221%22%20parent%3D%221%22%3E%3CmxGeometría%20width%3D%2250%22%20height%3D%2250%22%20relative%3D%221%22% 20as%3D%22geometry%22%3E%3CmxPoint%20x%3D%22214.5%22%20y%3D%22292.5%22%20as%3D%22sourcePoint%22%2F%3E%3CmxPoint%20x%3D%22214.5%22%20y%3D%22372.5%22%20as%3D%22targetPoint%22%2F%3E%3C%2FmxGeometry%3E%3C%2FmxCell%3E%3C%2Froot%3E%3C%2FmxGraphModel%3E" style="endArrow=classic;html=1;rounded=0;entryX=0.515;entryY=0;entryDx=0;entryDy=0;strokeColor=default;dashed=1;entryPerimeter=0;" edge="1" parent="1" target="L6VbJGl1hFEP0TACU5ey-40">
          <mxGeometry width="50" height="50" relative="1" as="geometry">
            <mxPoint x="722" y="542" as="sourcePoint" />
            <mxPoint x="721.83" y="592" as="targetPoint" />
          </mxGeometry>
        </mxCell>
        <mxCell id="L6VbJGl1hFEP0TACU5ey-54" value="&lt;div&gt;&lt;font&gt;&lt;i&gt;&lt;b&gt;API de registrador &lt;/b&gt;&lt;/i&gt;&lt;/font&gt;&lt;/div&gt;&lt;div&gt;&lt;font&gt;&lt;i&gt;&lt;span&gt;(SMS/CORREO ELECTRÓNICO)&lt;/span&gt;&lt;/i&gt;&lt;/font&gt;&lt;i style=&quot;background-color: transparent; color: light-dark(rgb(0, 0, 0), rgb(255, 255, 255));&quot;&gt;&lt;/i&gt;&lt;/div&gt;" style="text;strokeColor=none;align=center;fillColor=none;html=1;verticalAlign=middle;whiteSpace=wrap;rounded=0;" vertex="1" parent="1">
          <mxGeometry x="655" y="610" width="135" height="50" as="geometry" />
        </mxCell>
        <mxCell id="L6VbJGl1hFEP0TACU5ey-55" value="&#xa;&lt;span style=&quot;color: rgba(0, 0, 0, 0); font-family: monospace; font-size: 0px; font-style: normal; font-variant-ligatures: normal; font-variant-caps: normal; font-weight: 400; letter-spacing: normal; orphans: 2; text-align: start; text-indent: 0px; text-transform: none; widows: 2; word-spacing: 0px; -webkit-text-stroke-width: 0px; white-space: nowrap; background-color: rgb(251, 251, 251); text-decoration-thickness: initial; text-decoration-style: initial; text-decoration-color: initial; display: inline !important; float: none;&quot;&gt;%3CmxGraphModel%3E%3Croot%3E%3CmxCell%20id%3D%220%22%2F%3E%3CmxCell%20id%3D%221%22%20parent%3D%220%22%2F%3E%3CmxCell%20id%3D%222%22%20value%3D%22%26%2310%3B%26lt%3Bspan%20style%3D%26quot%3Bcolor%3CmxCell%20CmxCell%3D%3D%3D%3D%3D%3D%3D%220%3D%3D%222%22%22%22%220CmxCell%3D%222%22%220CmxCell%3D%3D%222%220CmxCell%3D%3D%222%220CmxCell%3D%222%220CmxCell%3D%222%220CmxCell%3D%222%220CmxCell%3D%222%220CmxCell%3D%222%220CmxCell%222%23D%220CmxCell%222%2310%3B%26lt%3Bspan%20style%3D%26quot%3Bcolor%3D%3Bcolor%3Bcolor%3D%3CmxCell%20id%3D%222%22%22%222%222%222%222%A%20rgba(0%2C%200%2C%200%2C%200)%3B%20familia-de-fuentes%3A%20monoespacio%3B%20tamaño-fuente%3A%200px%3B%20estilo-fuente%3A%20normal%3B%20ligaduras-variantes%3A%20normal%3B%20mayúsculas-variantes%3A%20normal%3B%20peso-fuente%3A%20400%3B%20espaciado-letra%3A% 20normal%3B%20huérfanos%3A%202%3B%20text-align%3A%20start%3B%20text-indent%3A%200px%3B%20text-transform%3A%20none%3B%20widows%3A%202%3B%20word-spacing%3A%200px%3B%20-webkit-text-stroke-width%3A%200px%3B%20espacio-en-blanco%3A%20nowrap%3B%20color-de-fondo%3A%20rgb(251%2C%20251%2C%20251)%3B%20texto-decoración-grosor%3A%20inicial%3B%20texto-estilo-de-decoración%3A%20inicial%3B%20color-de-decoración-de-texto%3A%20inicial%3B%20pantalla%3A%20inline%20! importante%3B%20float%3A%20none%3B%26quot%3B%26gt%3B%253CmxGraphModel%253E%253Croot%253E%253CmxCell%2520id%253D%25220%2522%252F%253E%253CmxCell%2520id%253D%25221%2522%2520parent%253D%25220%2522%252F%253E%253CmxCell%2520id%2520id%2520id%2520id. %253D%25222%2522%2520value%253D%2522%2522%2520style%253D%2522endArrow%253Dclassic%253Bhtml%253D1%253Redondeado%253D0%253Bdashed%253D1%253B%2522%2520edge%253D%25221%2522%2520parent%253D%25221%2522%253E%253CmxGeometr%C3%ADa% 2520ancho%253D%252250%2522%2520altura%253D%252250%2522%2520relativo%253D%25221%2522%2520as%253D%2522geometry%2522%253E%253CmxPoint%2520x%253D%2522310%2522%25%2020y%253D%2522100%2522%2520as%253D%2522sourcePoint%2522%252F%2533E%253CmxPoint%2520x%253D%2522400%2522%2520y%253D%2522100%2522%2520as%253D%2522targetPoint%2522%252F%253E%253C%252FmxGeometry%253E%253C%252FmxCell%253E%253C%252Froot%253E%253C%252FmxGraphModel%253E%22%20style%3D%22endArrow% 3Dclassic%3Bhtml%3D1%3Brounded%3D0%3Bdashed%3D1%3B%22%20edge%3D%221%22%20parent%3D%221%22%3E%3CmxGeometry%20width%3D%2250%22%20height%3D%2250%22%20relative%3D%221%22%20as%3D%22geometry%22%3E%3CmxPoint%20x%3D%22310%22%20y%3D%22100%22%20as%3D%22sourcePoint%22%2F%3E%3CmxPoint%20x%3D%22400%22%20y%3D%22100%22%20as%3D%22targetPoint%22%2F%3E%3C%2FmxGeometry%3E%3C%2FmxCell%3E%3C%2Froot%3E% 3C%2FmxGraphModel%3E" style="endArrow=classic;html=1;rounded=0;dashed=1;" edge="1" parent="1">
          <mxGeometry width="50" height="50" relative="1" as="geometry">
            <mxPoint x="310" y="100" as="sourcePoint" />
            <mxPoint x="400" y="100" as="targetPoint" />
          </mxGeometry>
        </mxCell>
        <mxCell id="L6VbJGl1hFEP0TACU5ey-56" value="" style="endArrow=classic;html=1;rounded=0;dashed=1;" edge="1" parent="1">
          <mxGeometry width="50" height="50" relative="1" as="geometry">
            <mxPoint x="564" y="96.83" as="sourcePoint" />
            <mxPoint x="640" y="97" as="targetPoint" />
          </mxGeometry>
        </mxCell>
        <mxCell id="L6VbJGl1hFEP0TACU5ey-57" value="&#xa;&lt;span style=&quot;color: rgba(0, 0, 0, 0); font-family: monospace; font-size: 0px; font-style: normal; font-variant-ligatures: normal; font-variant-caps: normal; font-weight: 400; letter-spacing: normal; orphans: 2; text-align: start; text-indent: 0px; text-transform: none; widows: 2; word-spacing: 0px; -webkit-text-stroke-width: 0px; white-space: nowrap; background-color: rgb(251, 251, 251); text-decoration-thickness: initial; text-decoration-style: initial; text-decoration-color: initial; display: inline !important; float: none;&quot;&gt;%3CmxGraphModel%3E%3Croot%3E%3CmxCell%20id%3D%220%22%2F%3E%3CmxCell%20id%3D%221%22%20parent%3D%220%22%2F%3E%3CmxCell%20id%3D%222%22%20value%3D%22%22%20style%3D%22endArrow%3Dclassic%3Bhtml%3D1%3Redondeado%3D0%3Bdashed%3D1%3B%22%20edge%3D%221%22%20parent%3D%221%22%3E%3CmxGeometría%20ancho%3D%2250%22%20altura%3D%2250%22%20relative%3D%221%22%20as%3D%22geometry%22%3E%3CmxPoint%20x%3D%22310%22% 20y%3D%22100%22%20as%3D%22sourcePoint%22%2F%3E%3CmxPoint%20x%3D%22400%22%20y%3D%22100%22%20as%3D%22targetPoint%22%2F%3E%3C%2FmxGeometry%3E%3C%2FmxCell%3E%3C%2Froot%3E%3C%2FmxGraphModel%3E" style="endArrow=classic;html=1;rounded=0;dashed=1;" edge="1" parent="1">
          <mxGeometry width="50" height="50" relative="1" as="geometry">
            <mxPoint x="312" y="251.83" as="sourcePoint" />
            <mxPoint x="402" y="251.83" as="targetPoint" />
          </mxGeometry>
        </mxCell>
        <mxCell id="L6VbJGl1hFEP0TACU5ey-61" value="&#xa;&lt;span style=&quot;color: rgba(0, 0, 0, 0); font-family: monospace; font-size: 0px; font-style: normal; font-variant-ligatures: normal; font-variant-caps: normal; font-weight: 400; letter-spacing: normal; orphans: 2; text-align: start; text-indent: 0px; text-transform: none; widows: 2; word-spacing: 0px; -webkit-text-stroke-width: 0px; white-space: nowrap; background-color: rgb(251, 251, 251); text-decoration-thickness: initial; text-decoration-style: initial; text-decoration-color: initial; display: inline !important; float: none;&quot;&gt;%3CmxGraphModel%3E%3Croot%3E%3CmxCell%20id%3D%220%22%2F%3E%3CmxCell%20id%3D%221%22%20parent%3D%220%22%2F%3E%3CmxCell%20id%3D%222%22%20value%3D%22%26%2310%3B%26lt%3Bspan%20style%3D%26quot%3Bcolor%3CmxCell%20CmxCell%3D%3D%3D%3D%3D%3D%3D%220%3D%3D%222%22%22%22%220CmxCell%3D%222%22%220CmxCell%3D%3D%222%220CmxCell%3D%3D%222%220CmxCell%3D%222%220CmxCell%3D%222%220CmxCell%3D%222%220CmxCell%3D%222%220CmxCell%3D%222%220CmxCell%222%23D%220CmxCell%222%2310%3B%26lt%3Bspan%20style%3D%26quot%3Bcolor%3D%3Bcolor%3Bcolor%3D%3CmxCell%20id%3D%222%22%22%222%222%222%222%A%20rgba(0%2C%200%2C%200%2C%200)%3B%20familia-de-fuentes%3A%20monoespacio%3B%20tamaño-fuente%3A%200px%3B%20estilo-fuente%3A%20normal%3B%20ligaduras-variantes%3A%20normal%3B%20mayúsculas-variantes%3A%20normal%3B%20peso-fuente%3A%20400%3B%20espaciado-letra%3A% 20normal%3B%20huérfanos%3A%202%3B%20text-align%3A%20start%3B%20text-indent%3A%200px%3B%20text-transform%3A%20none%3B%20widows%3A%202%3B%20word-spacing%3A%200px%3B%20-webkit-text-stroke-width%3A%200px%3B%20espacio-en-blanco%3A%20nowrap%3B%20color-de-fondo%3A%20rgb(251%2C%20251%2C%20251)%3B%20texto-decoración-grosor%3A%20inicial%3B%20texto-estilo-de-decoración%3A%20inicial%3B%20color-de-decoración-de-texto%3A%20inicial%3B%20pantalla%3A%20inline%20! importante%3B%20float%3A%20none%3B%26quot%3B%26gt%3B%253CmxGraphModel%253E%253Croot%253E%253CmxCell%2520id%253D%25220%2522%252F%253E%253CmxCell%2520id%253D%25221%2522%2520parent%253D%25220%2522%252F%253E%253CmxCell%2520id%2520id%2520id%2520id. %253D%25222%2522%2520value%253D%2522%2522%2520style%253D%2522endArrow%253Dclassic%253Bhtml%253D1%253Redondeado%253D0%253Bdashed%253D1%253B%2522%2520edge%253D%25221%2522%2520parent%253D%25221%2522%253E%253CmxGeometr%C3%ADa% 2520ancho%253D%252250%2522%2520altura%253D%252250%2522%2520relativo%253D%25221%2522%2520as%253D%2522geometry%2522%253E%253CmxPoint%2520x%253D%2522310%2522%25%2020y%253D%2522100%2522%2520as%253D%2522sourcePoint%2522%252F%2533E%253CmxPoint%2520x%253D%2522400%2522%2520y%253D%2522100%2522%2520as%253D%2522targetPoint%2522%252F%253E%253C%252FmxGeometry%253E%253C%252FmxCell%253E%253C%252Froot%253E%253C%252FmxGraphModel%253E%22%20style%3D%22endArrow% 3Dclassic%3Bhtml%3D1%3Brounded%3D0%3Bdashed%3D1%3B%22%20edge%3D%221%22%20parent%3D%221%22%3E%3CmxGeometry%20width%3D%2250%22%20height%3D%2250%22%20relative%3D%221%22%20as%3D%22geometry%22%3E%3CmxPoint%20x%3D%22310%22%20y%3D%22100%22%20as%3D%22sourcePoint%22%2F%3E%3CmxPoint%20x%3D%22400%22%20y%3D%22100%22%20as%3D%22targetPoint%22%2F%3E%3C%2FmxGeometry%3E%3C%2FmxCell%3E%3C%2Froot%3E% 3C%2FmxGraphModel%3E" style="endArrow=classic;html=1;rounded=0;dashed=1;" edge="1" parent="1">
          <mxGeometry width="50" height="50" relative="1" as="geometry">
            <mxPoint x="559" y="250" as="sourcePoint" />
            <mxPoint x="640" y="250" as="targetPoint" />
          </mxGeometry>
        </mxCell>
        <mxCell id="L6VbJGl1hFEP0TACU5ey-63" value="&lt;div&gt;&lt;span&gt;&lt;span&gt;Puerta de enlace de API&lt;/span&gt;&lt;/span&gt;&lt;/div&gt;" style="text;strokeColor=none;align=center;fillColor=none;html=1;verticalAlign=middle;whiteSpace=wrap;rounded=0;fontStyle=1;fontSize=15;fontColor=light-dark(#00FFFF,#EDEDED);horizontal=1;shadow=0;glass=0;" vertex="1" parent="1">
          <mxGeometry x="367.5" y="174" width="220" height="39.5" as="geometry" />
        </mxCell>
      </root>
    </mxGraphModel>
  </diagram>
</mxfile>
